<?xml version="1.0" encoding="UTF-8" standalone="no"?>
<!-- Created with Inkscape (http://www.inkscape.org/) -->

<svg
   width="224.84756"
   height="46.444977"
   viewBox="0 0 59.490917 12.288567"
   version="1.1"
   id="svg1"
   xmlns="http://www.w3.org/2000/svg"
   xmlns:svg="http://www.w3.org/2000/svg">
  <defs
     id="defs1" />
  <g
     id="layer1"
     transform="translate(-10.215801,-56.420917)">
    <g
       id="g1"
       style="fill:#aa8800">
      <g
         id="g6">
        <text
           xml:space="preserve"
           style="font-style:normal;font-variant:normal;font-weight:normal;font-stretch:normal;font-size:7.40833px;font-family:'Krona One';-inkscape-font-specification:'Krona One, Normal';font-variant-ligatures:normal;font-variant-caps:normal;font-variant-numeric:normal;font-variant-east-asian:normal;text-align:start;writing-mode:lr-tb;direction:ltr;text-anchor:start;fill:#d4aa00;stroke-width:0.264583"
           x="9.4826384"
           y="25.503159"
           id="text1"><tspan
             id="tspan1"
             style="font-style:normal;font-variant:normal;font-weight:normal;font-stretch:normal;font-size:7.40833px;font-family:'Krona One';-inkscape-font-specification:'Krona One, Normal';font-variant-ligatures:normal;font-variant-caps:normal;font-variant-numeric:normal;font-variant-east-asian:normal;fill:#d4aa00;stroke-width:0.264583"
             x="9.4826384"
             y="25.503159"><tspan
   style="fill:#002f87;fill-opacity:1"
   id="tspan2">C</tspan>ONTAÍ PRÓ</tspan></text>
        <text
           xml:space="preserve"
           style="font-style:normal;font-variant:normal;font-weight:normal;font-stretch:normal;font-size:2.82222px;font-family:'Krona One';-inkscape-font-specification:'Krona One, Normal';font-variant-ligatures:normal;font-variant-caps:normal;font-variant-numeric:normal;font-variant-east-asian:normal;text-align:start;writing-mode:lr-tb;direction:ltr;text-anchor:start;fill:#aa8800;stroke-width:0.264583"
           x="16.898901"
           y="30.418186"
           id="text1-8"><tspan
             id="tspan1-8"
             style="font-style:normal;font-variant:normal;font-weight:normal;font-stretch:normal;font-size:2.82222px;font-family:'Krona One';-inkscape-font-specification:'Krona One, Normal';font-variant-ligatures:normal;font-variant-caps:normal;font-variant-numeric:normal;font-variant-east-asian:normal;fill:#aa8800;stroke-width:0.264583"
             x="16.898901"
             y="30.418186">CONTROLE INTELIGENTE</tspan></text>
      </g>
      <text
         xml:space="preserve"
         style="font-style:normal;font-variant:normal;font-weight:normal;font-stretch:normal;font-size:2.82223px;font-family:'Krona One';-inkscape-font-specification:'Krona One, Normal';font-variant-ligatures:normal;font-variant-caps:normal;font-variant-numeric:normal;font-variant-east-asian:normal;text-align:start;writing-mode:lr-tb;direction:ltr;text-anchor:start;fill:#31cf26;fill-opacity:1;stroke-width:0.264583"
         x="15.484061"
         y="65.449432"
         id="text4"><tspan
           id="tspan4"
           style="stroke-width:0.264583"
           x="15.484061"
           y="65.449432">     </tspan></text>
      <g
         id="g5"
         transform="translate(-0.18401487,-7.6366171)">
        <text
           xml:space="preserve"
           style="font-style:normal;font-variant:normal;font-weight:normal;font-stretch:normal;font-size:7.40833px;font-family:'Krona One';-inkscape-font-specification:'Krona One, Normal';font-variant-ligatures:normal;font-variant-caps:normal;font-variant-numeric:normal;font-variant-east-asian:normal;text-align:start;writing-mode:lr-tb;direction:ltr;text-anchor:start;fill:#d4aa00;stroke-width:0.264583"
           x="9.283433"
           y="53.442375"
           id="text1-1"><tspan
             id="tspan1-7"
             style="font-style:normal;font-variant:normal;font-weight:normal;font-stretch:normal;font-size:7.40833px;font-family:'Krona One';-inkscape-font-specification:'Krona One, Normal';font-variant-ligatures:normal;font-variant-caps:normal;font-variant-numeric:normal;font-variant-east-asian:normal;fill:#d4aa00;stroke-width:0.264583"
             x="9.283433"
             y="53.442375"><tspan
   style="fill:#002f87;fill-opacity:1"
   id="tspan2-1">CONTAÍ</tspan> PRÓ</tspan></text>
        <text
           xml:space="preserve"
           style="font-style:normal;font-variant:normal;font-weight:normal;font-stretch:normal;font-size:2.82222px;font-family:'Krona One';-inkscape-font-specification:'Krona One, Normal';font-variant-ligatures:normal;font-variant-caps:normal;font-variant-numeric:normal;font-variant-east-asian:normal;text-align:start;writing-mode:lr-tb;direction:ltr;text-anchor:start;fill:#aa8800;stroke-width:0.264583"
           x="16.699696"
           y="58.357399"
           id="text1-8-1"><tspan
             id="tspan1-8-5"
             style="font-style:normal;font-variant:normal;font-weight:normal;font-stretch:normal;font-size:2.82222px;font-family:'Krona One';-inkscape-font-specification:'Krona One, Normal';font-variant-ligatures:normal;font-variant-caps:normal;font-variant-numeric:normal;font-variant-east-asian:normal;fill:#aa8800;stroke-width:0.264583"
             x="16.699696"
             y="58.357399">CONTROLE INTELIGENTE</tspan></text>
      </g>
      <g
         id="text1-1-2"
         style="font-size:7.40833px;font-family:'Krona One';-inkscape-font-specification:'Krona One, Normal';fill:#d4aa00;stroke-width:0.264583"
         aria-label="CONTAÍ PRÓ">
        <path
           style="fill:#002f87"
           d="m 10.2158,60.902815 q 0,-0.604098 0.227893,-1.124996 0.227892,-0.524515 0.658357,-0.907954 0.434082,-0.387057 1.056266,-0.607715 0.625801,-0.220658 1.414383,-0.220658 0.690914,0 1.266072,0.141076 0.578776,0.13746 1.074353,0.42323 l -0.528133,0.868164 q -0.148312,-0.09767 -0.343648,-0.173633 -0.19172,-0.07596 -0.412378,-0.126607 -0.217041,-0.05426 -0.452169,-0.0832 -0.23151,-0.02894 -0.459403,-0.02894 -0.549837,0 -0.980301,0.137459 -0.430465,0.133842 -0.727088,0.379822 -0.293005,0.242362 -0.448551,0.582393 -0.151928,0.336413 -0.151928,0.741557 0,0.419612 0.159163,0.770495 0.159163,0.350883 0.459403,0.607714 0.303858,0.253215 0.737939,0.397909 0.4377,0.141076 0.987537,0.141076 0.249597,0 0.495576,-0.03617 0.24598,-0.03617 0.473873,-0.09767 0.23151,-0.06511 0.444934,-0.151928 0.213423,-0.09043 0.397908,-0.195337 l 0.528133,0.868164 q -0.463021,0.296622 -1.070735,0.466638 -0.607715,0.166398 -1.291394,0.166398 -0.871781,0 -1.530138,-0.224276 Q 11.543367,63.387933 11.10205,62.993642 10.660733,62.595734 10.436458,62.060366 10.2158,61.521381 10.2158,60.902815 Z m 6.80785,0.01809 q 0,-0.64027 0.235127,-1.172021 0.235128,-0.53175 0.658358,-0.911572 0.426847,-0.383438 1.020092,-0.593245 0.596863,-0.209806 1.320332,-0.209806 0.719853,0 1.316715,0.209806 0.596863,0.209807 1.020093,0.593245 0.426847,0.379822 0.661974,0.911572 0.235128,0.531751 0.235128,1.172021 0,0.643888 -0.235128,1.182873 -0.235127,0.535368 -0.661974,0.922424 -0.42323,0.387056 -1.020093,0.604097 -0.596862,0.213424 -1.316715,0.213424 -0.723469,0 -1.320332,-0.213424 -0.593245,-0.217041 -1.020092,-0.604097 -0.42323,-0.387056 -0.658358,-0.922424 -0.235127,-0.538985 -0.235127,-1.182873 z m 1.146699,0 q 0,0.437699 0.155546,0.788582 0.159163,0.350883 0.437699,0.60048 0.282154,0.24598 0.661975,0.379822 0.383439,0.133842 0.83199,0.133842 0.448552,0 0.828373,-0.133842 0.383439,-0.133842 0.661975,-0.379822 0.278536,-0.249597 0.437699,-0.60048 0.159163,-0.350883 0.159163,-0.788582 0,-0.437699 -0.159163,-0.784964 -0.159163,-0.347266 -0.437699,-0.586011 -0.278536,-0.242362 -0.661975,-0.368969 -0.379821,-0.126608 -0.828373,-0.126608 -0.448551,0 -0.83199,0.126608 -0.379821,0.126607 -0.661975,0.368969 -0.278536,0.238745 -0.437699,0.586011 -0.155546,0.347265 -0.155546,0.784964 z m 6.587192,-2.81068 h 1.146699 l 3.523298,1.844848 v -1.844848 h 1.1467 v 5.653916 h -1.1467 V 61.170498 L 25.90424,59.336503 v 4.427634 h -1.146699 z m 9.119337,1.005623 h -2.08721 v -1.005623 h 5.321119 v 1.005623 h -2.08721 v 4.648293 h -1.146699 z m 6.384619,-1.005623 h 1.215429 l 2.734715,5.653916 h -1.204577 l -0.452168,-0.951362 h -3.30264 l -0.437699,0.951362 h -1.208194 z m 1.84123,3.758426 -1.222664,-2.568318 -1.190108,2.568318 z m 2.843239,-3.758426 H 46.0999 v 5.653916 h -1.153934 z m -0.766878,-1.005623 2.438093,-0.683678 0.253214,0.897102 -2.467032,0.575158 z"
           id="path6" />
        <path
           d="m 50.021102,58.110221 h 2.980696 q 0.651122,0 1.128612,0.141077 0.47749,0.141077 0.7922,0.40876 0.314709,0.264067 0.466638,0.647506 0.155546,0.383439 0.155546,0.864546 0,0.452169 -0.151929,0.835608 -0.151929,0.383439 -0.466638,0.665592 -0.311092,0.278536 -0.788582,0.437699 -0.47749,0.155546 -1.128613,0.155546 l -1.84123,-0.0036 v 1.501199 h -1.1467 z m 3.009634,3.161563 q 0.325562,0 0.567924,-0.07596 0.24598,-0.07958 0.408761,-0.220659 0.166398,-0.144693 0.245979,-0.347265 0.0832,-0.206189 0.0832,-0.455786 0,-0.502811 -0.329178,-0.781347 -0.325562,-0.282153 -0.976685,-0.282153 h -1.862934 v 2.163174 z m 3.765662,-3.161563 h 2.875792 q 0.651123,0 1.128613,0.13746 0.47749,0.133842 0.792199,0.390673 0.314709,0.256832 0.466638,0.625802 0.155546,0.368969 0.155546,0.835607 0,0.314709 -0.07596,0.60048 -0.07596,0.282153 -0.235128,0.520898 -0.155546,0.238745 -0.394291,0.426847 -0.238745,0.184485 -0.560689,0.307475 l 1.229898,1.808674 h -1.403531 l -1.0635,-1.606103 h -0.03256 l -1.736327,-0.0036 v 1.60972 h -1.146699 z m 2.904731,3.053043 q 0.325561,0 0.567923,-0.07596 0.24598,-0.07596 0.408761,-0.213423 0.166398,-0.13746 0.245979,-0.332796 0.0832,-0.198955 0.0832,-0.441317 0,-0.473873 -0.325561,-0.730704 -0.325561,-0.260449 -0.980301,-0.260449 h -1.758032 v 2.054654 z m 3.537768,-0.242363 q 0,-0.64027 0.235127,-1.172021 0.235128,-0.53175 0.658358,-0.911572 0.426847,-0.383438 1.020092,-0.593245 0.596863,-0.209806 1.320332,-0.209806 0.719853,0 1.316715,0.209806 0.596863,0.209807 1.020093,0.593245 0.426847,0.379822 0.661974,0.911572 0.235128,0.531751 0.235128,1.172021 0,0.643888 -0.235128,1.182873 -0.235127,0.535368 -0.661974,0.922424 -0.42323,0.387056 -1.020093,0.604097 -0.596862,0.213424 -1.316715,0.213424 -0.723469,0 -1.320332,-0.213424 -0.593245,-0.217041 -1.020092,-0.604097 -0.42323,-0.387056 -0.658358,-0.922424 -0.235127,-0.538985 -0.235127,-1.182873 z m 1.146699,0 q 0,0.437699 0.155546,0.788582 0.159164,0.350883 0.437699,0.60048 0.282154,0.24598 0.661975,0.379822 0.383439,0.133842 0.83199,0.133842 0.448552,0 0.828373,-0.133842 0.383439,-0.133842 0.661975,-0.379822 0.278536,-0.249597 0.437699,-0.60048 0.159164,-0.350883 0.159164,-0.788582 0,-0.437699 -0.159164,-0.784964 -0.159163,-0.347266 -0.437699,-0.586011 -0.278536,-0.242362 -0.661975,-0.368969 -0.379821,-0.126608 -0.828373,-0.126608 -0.448551,0 -0.83199,0.126608 -0.379821,0.126607 -0.661975,0.368969 -0.278535,0.238745 -0.437699,0.586011 -0.155546,0.347265 -0.155546,0.784964 z m 0.741557,-3.816303 2.438093,-0.683678 0.253214,0.897102 -2.467032,0.575158 z"
           id="path7" />
      </g>
      <path
         d="m 17.34767,67.589134 q 0,-0.230133 0.08682,-0.42857 0.08682,-0.199815 0.250803,-0.345887 0.165364,-0.14745 0.402387,-0.23151 0.2384,-0.08406 0.538812,-0.08406 0.263205,0 0.482313,0.05374 0.220486,0.05236 0.409277,0.16123 l -0.201193,0.330729 q -0.0565,-0.03721 -0.130914,-0.06615 -0.07304,-0.02894 -0.157096,-0.04823 -0.08268,-0.02067 -0.172255,-0.03169 -0.08819,-0.01102 -0.17501,-0.01102 -0.209462,0 -0.373448,0.05236 -0.163987,0.05099 -0.276986,0.144694 -0.111621,0.09233 -0.170877,0.221864 -0.05788,0.128158 -0.05788,0.282498 0,0.159852 0.06063,0.293522 0.06063,0.133669 0.17501,0.23151 0.115755,0.09646 0.28112,0.151584 0.166742,0.05374 0.376204,0.05374 0.09509,0 0.188791,-0.01378 0.09371,-0.01378 0.180523,-0.03721 0.08819,-0.02481 0.169498,-0.05788 0.08131,-0.03445 0.151585,-0.07441 l 0.201193,0.330729 q -0.176389,0.112999 -0.407899,0.177767 -0.23151,0.06339 -0.491959,0.06339 -0.332107,0 -0.58291,-0.08544 -0.250803,-0.08682 -0.418923,-0.237023 -0.168121,-0.151584 -0.253559,-0.355533 -0.08406,-0.205328 -0.08406,-0.440972 z m 2.593466,0.0069 q 0,-0.243913 0.08957,-0.446484 0.08957,-0.202572 0.250803,-0.347266 0.162608,-0.146071 0.388606,-0.225998 0.227376,-0.07993 0.502984,-0.07993 0.274229,0 0.501605,0.07993 0.227376,0.07993 0.388607,0.225998 0.162608,0.144694 0.252181,0.347266 0.08957,0.202571 0.08957,0.446484 0,0.24529 -0.08957,0.450618 -0.08957,0.20395 -0.252181,0.351399 -0.161231,0.14745 -0.388607,0.230133 -0.227376,0.0813 -0.501605,0.0813 -0.275608,0 -0.502984,-0.0813 -0.225998,-0.08268 -0.388606,-0.230133 -0.161231,-0.147449 -0.250803,-0.351399 -0.08957,-0.205328 -0.08957,-0.450618 z m 0.436837,0 q 0,0.166742 0.05926,0.300412 0.06063,0.13367 0.166742,0.228754 0.107487,0.09371 0.252181,0.144694 0.146072,0.05099 0.316949,0.05099 0.170876,0 0.31557,-0.05099 0.146072,-0.05099 0.252181,-0.144694 0.106109,-0.09508 0.166743,-0.228754 0.06063,-0.13367 0.06063,-0.300412 0,-0.166743 -0.06063,-0.299034 -0.06063,-0.132292 -0.166743,-0.223242 -0.106109,-0.09233 -0.252181,-0.14056 -0.144694,-0.04823 -0.31557,-0.04823 -0.170877,0 -0.316949,0.04823 -0.144694,0.04823 -0.252181,0.14056 -0.106108,0.09095 -0.166742,0.223242 -0.05926,0.132291 -0.05926,0.299034 z m 2.509406,-1.070735 h 0.436838 l 1.342208,0.702799 v -0.702799 h 0.436838 v 2.153872 h -0.436838 v -0.988053 l -1.342208,-0.698664 v 1.686717 h -0.436838 z m 3.474032,0.383094 h -0.795127 v -0.383094 h 2.027092 v 0.383094 h -0.795127 v 1.770778 h -0.436838 z m 1.697741,-0.383094 h 1.09554 q 0.248047,0 0.429948,0.05236 0.1819,0.05099 0.30179,0.148828 0.119889,0.09784 0.177766,0.238401 0.05926,0.14056 0.05926,0.318326 0,0.11989 -0.02894,0.228755 -0.02894,0.107487 -0.08957,0.198437 -0.05926,0.09095 -0.150206,0.162608 -0.09095,0.07028 -0.213596,0.117133 l 0.468533,0.689019 H 29.574993 L 29.16985,68.067313 h -0.0124 l -0.661458,-0.0014 v 0.613226 h -0.436838 z m 1.106564,1.163063 q 0.124024,0 0.216352,-0.02894 0.09371,-0.02894 0.155718,-0.08131 0.06339,-0.05236 0.09371,-0.126779 0.0317,-0.07579 0.0317,-0.168121 0,-0.180522 -0.124024,-0.278363 -0.124023,-0.09922 -0.373448,-0.09922 H 28.49599 v 0.782725 z m 1.34772,-0.09233 q 0,-0.243913 0.08957,-0.446484 0.08957,-0.202572 0.250802,-0.347266 0.162609,-0.146071 0.388607,-0.225998 0.227376,-0.07993 0.502984,-0.07993 0.274229,0 0.501605,0.07993 0.227376,0.07993 0.388607,0.225998 0.162608,0.144694 0.25218,0.347266 0.08957,0.202571 0.08957,0.446484 0,0.24529 -0.08957,0.450618 -0.08957,0.20395 -0.25218,0.351399 -0.161231,0.14745 -0.388607,0.230133 -0.227376,0.0813 -0.501605,0.0813 -0.275608,0 -0.502984,-0.0813 -0.225998,-0.08268 -0.388607,-0.230133 -0.16123,-0.147449 -0.250802,-0.351399 -0.08957,-0.205328 -0.08957,-0.450618 z m 0.436838,0 q 0,0.166742 0.05926,0.300412 0.06063,0.13367 0.166742,0.228754 0.107487,0.09371 0.252181,0.144694 0.146072,0.05099 0.316949,0.05099 0.170876,0 0.31557,-0.05099 0.146072,-0.05099 0.252181,-0.144694 0.106109,-0.09508 0.166742,-0.228754 0.06063,-0.13367 0.06063,-0.300412 0,-0.166743 -0.06063,-0.299034 -0.06063,-0.132292 -0.166742,-0.223242 -0.106109,-0.09233 -0.252181,-0.14056 -0.144694,-0.04823 -0.31557,-0.04823 -0.170877,0 -0.316949,0.04823 -0.144694,0.04823 -0.252181,0.14056 -0.106109,0.09095 -0.166742,0.223242 -0.05926,0.132291 -0.05926,0.299034 z m 2.512162,-1.070735 h 0.436837 v 1.770778 h 1.252636 v 0.383094 h -1.689473 z m 2.112531,0 h 1.834168 v 0.383094 h -1.39733 v 0.429948 h 1.237477 v 0.359668 h -1.237477 v 0.599446 h 1.426268 v 0.381716 h -1.863106 z m 3.230119,0 h 0.439594 v 2.153872 h -0.439594 z m 0.993566,0 h 0.436837 l 1.342209,0.702799 v -0.702799 h 0.436837 v 2.153872 h -0.436837 v -0.988053 l -1.342209,-0.698664 v 1.686717 h -0.436837 z m 3.474031,0.383094 h -0.795127 v -0.383094 h 2.027092 v 0.383094 h -0.795127 v 1.770778 h -0.436838 z m 1.697741,-0.383094 h 1.834167 v 0.383094 h -1.39733 v 0.429948 h 1.237478 v 0.359668 h -1.237478 v 0.599446 h 1.426269 v 0.381716 h -1.863106 z m 2.348175,0 h 0.436837 v 1.770778 h 1.252636 v 0.383094 h -1.689473 z m 2.05741,0 h 0.439594 v 2.153872 h -0.439594 z m 0.84887,1.056954 q 0,-0.227376 0.08544,-0.424435 0.08544,-0.198437 0.249425,-0.344509 0.163986,-0.146072 0.402386,-0.230132 0.239779,-0.08406 0.548459,-0.08406 0.111621,0 0.223242,0.0124 0.112999,0.01102 0.221864,0.03583 0.110243,0.0248 0.213596,0.06339 0.104731,0.03721 0.198437,0.08957 l -0.201193,0.330729 q -0.0565,-0.03307 -0.128157,-0.05926 -0.07166,-0.02756 -0.154341,-0.04547 -0.0813,-0.01929 -0.169498,-0.02894 -0.08682,-0.0096 -0.175011,-0.0096 -0.203949,0 -0.363802,0.05236 -0.159852,0.05099 -0.270095,0.144694 -0.110243,0.09233 -0.168121,0.221864 -0.05788,0.129536 -0.05788,0.283876 0,0.159852 0.06063,0.293522 0.06063,0.133669 0.172254,0.230132 0.111621,0.09646 0.270095,0.151584 0.158475,0.05374 0.354156,0.05374 0.155718,0 0.285254,-0.03445 0.129535,-0.03583 0.225998,-0.100596 0.09646,-0.06477 0.157096,-0.155718 0.06063,-0.09233 0.07993,-0.206706 h -0.752408 v -0.359668 h 1.145149 v 0.0014 l 0.0014,-0.0014 q 0.03445,0.165365 0.02067,0.322461 -0.0124,0.155718 -0.07166,0.2949 -0.05788,0.137804 -0.159852,0.253559 -0.101975,0.115755 -0.243912,0.199815 -0.141938,0.08268 -0.322461,0.129536 -0.180523,0.04547 -0.395497,0.04547 -0.300412,0 -0.538812,-0.08819 -0.237023,-0.08819 -0.402387,-0.241156 -0.165365,-0.152962 -0.253559,-0.35829 -0.08682,-0.205327 -0.08682,-0.438216 z m 2.969669,-1.056954 h 1.834168 v 0.383094 h -1.39733 v 0.429948 h 1.237478 v 0.359668 h -1.237478 v 0.599446 h 1.426269 v 0.381716 h -1.863107 z m 2.345419,0 h 0.436838 l 1.342208,0.702799 v -0.702799 h 0.436838 v 2.153872 h -0.436838 v -0.988053 l -1.342208,-0.698664 v 1.686717 h -0.436838 z m 3.474032,0.383094 h -0.795128 v -0.383094 h 2.027093 v 0.383094 h -0.795127 v 1.770778 h -0.436838 z m 1.697742,-0.383094 h 1.834168 v 0.383094 h -1.39733 v 0.429948 h 1.237477 v 0.359668 h -1.237477 v 0.599446 h 1.426269 v 0.381716 h -1.863107 z"
         id="text1-8-1-2"
         style="-inkscape-font-specification:'Krona One, Normal';stroke-width:0.264583"
         aria-label="CONTROLE INTELIGENTE" />
    </g>
  </g>
</svg>
